{"asset":{"version":"2.0","generator":"Blockbench 4.12.4 glTF exporter"},"scenes":[{"nodes":[1,3,5,7,9,11],"name":"blockbench_export"}],"scene":0,"nodes":[{"name":"body"},{"translation":[0,0.6875,0],"name":"body","mesh":0,"children":[0],"skin":0},{"name":"left_leg"},{"translation":[0.125,0.4375,0],"name":"left_leg","mesh":1,"children":[2],"skin":1},{"name":"right_hand"},{"translation":[-0.375,1,0],"name":"right_hand","mesh":2,"children":[4],"skin":2},{"name":"left_hand"},{"translation":[0.375,1,0],"name":"left_hand","mesh":3,"children":[6],"skin":3},{"name":"head"},{"translation":[0,1.125,0],"name":"head","mesh":4,"children":[8],"skin":4},{"name":"right_leg"},{"translation":[-0.125,0.4375,0],"name":"right_leg","mesh":5,"children":[10],"skin":5}],"bufferViews":[{"buffer":0,"byteOffset":0,"byteLength":288,"target":34962,"byteStride":12},{"buffer":0,"byteOffset":288,"byteLength":288,"target":34962,"byteStride":12},{"buffer":0,"byteOffset":576,"byteLength":192,"target":34962,"byteStride":8},{"buffer":0,"byteOffset":768,"byteLength":192,"target":34962,"byteStride":8},{"buffer":0,"byteOffset":960,"byteLength":384,"target":34962,"byteStride":16},{"buffer":0,"byteOffset":1344,"byteLength":72,"target":34963},{"buffer":0,"byteOffset":1416,"byteLength":288,"target":34962,"byteStride":12},{"buffer":0,"byteOffset":1704,"byteLength":288,"target":34962,"byteStride":12},{"buffer":0,"byteOffset":1992,"byteLength":192,"target":34962,"byteStride":8},{"buffer":0,"byteOffset":2184,"byteLength":192,"target":34962,"byteStride":8},{"buffer":0,"byteOffset":2376,"byteLength":384,"target":34962,"byteStride":16},{"buffer":0,"byteOffset":2760,"byteLength":72,"target":34963},{"buffer":0,"byteOffset":2832,"byteLength":288,"target":34962,"byteStride":12},{"buffer":0,"byteOffset":3120,"byteLength":288,"target":34962,"byteStride":12},{"buffer":0,"byteOffset":3408,"byteLength":192,"target":34962,"byteStride":8},{"buffer":0,"byteOffset":3600,"byteLength":192,"target":34962,"byteStride":8},{"buffer":0,"byteOffset":3792,"byteLength":384,"target":34962,"byteStride":16},{"buffer":0,"byteOffset":4176,"byteLength":72,"target":34963},{"buffer":0,"byteOffset":4248,"byteLength":288,"target":34962,"byteStride":12},{"buffer":0,"byteOffset":4536,"byteLength":288,"target":34962,"byteStride":12},{"buffer":0,"byteOffset":4824,"byteLength":192,"target":34962,"byteStride":8},{"buffer":0,"byteOffset":5016,"byteLength":192,"target":34962,"byteStride":8},{"buffer":0,"byteOffset":5208,"byteLength":384,"target":34962,"byteStride":16},{"buffer":0,"byteOffset":5592,"byteLength":72,"target":34963},{"buffer":0,"byteOffset":5664,"byteLength":288,"target":34962,"byteStride":12},{"buffer":0,"byteOffset":5952,"byteLength":288,"target":34962,"byteStride":12},{"buffer":0,"byteOffset":6240,"byteLength":192,"target":34962,"byteStride":8},{"buffer":0,"byteOffset":6432,"byteLength":192,"target":34962,"byteStride":8},{"buffer":0,"byteOffset":6624,"byteLength":384,"target":34962,"byteStride":16},{"buffer":0,"byteOffset":7008,"byteLength":72,"target":34963},{"buffer":0,"byteOffset":7080,"byteLength":288,"target":34962,"byteStride":12},{"buffer":0,"byteOffset":7368,"byteLength":288,"target":34962,"byteStride":12},{"buffer":0,"byteOffset":7656,"byteLength":192,"target":34962,"byteStride":8},{"buffer":0,"byteOffset":7848,"byteLength":192,"target":34962,"byteStride":8},{"buffer":0,"byteOffset":8040,"byteLength":384,"target":34962,"byteStride":16},{"buffer":0,"byteOffset":8424,"byteLength":72,"target":34963},{"buffer":0,"byteOffset":8496,"byteLength":64},{"buffer":0,"byteOffset":8560,"byteLength":64},{"buffer":0,"byteOffset":8624,"byteLength":64},{"buffer":0,"byteOffset":8688,"byteLength":64},{"buffer":0,"byteOffset":8752,"byteLength":64},{"buffer":0,"byteOffset":8816,"byteLength":64},{"buffer":0,"byteOffset":8880,"byteLength":20},{"buffer":0,"byteOffset":8900,"byteLength":80},{"buffer":0,"byteOffset":8980,"byteLength":20},{"buffer":0,"byteOffset":9000,"byteLength":80},{"buffer":0,"byteOffset":9080,"byteLength":20},{"buffer":0,"byteOffset":9100,"byteLength":80},{"buffer":0,"byteOffset":9180,"byteLength":20},{"buffer":0,"byteOffset":9200,"byteLength":80}],"buffers":[{"byteLength":9280,"uri":"data:application/octet-stream;base64,"}],"accessors":[{"bufferView":0,"componentType":5126,"count":24,"max":[0.25,0.375,0.125],"min":[-0.25,-0.25,-0.125],"type":"VEC3"},{"bufferView":1,"componentType":5126,"count":24,"max":[1,1,1],"min":[-1,-1,-1],"type":"VEC3"},{"bufferView":2,"componentType":5126,"count":24,"max":[0.5,0.625],"min":[0,0],"type":"VEC2"},{"bufferView":3,"componentType":5123,"count":24,"max":[0,0,0,0],"min":[0,0,0,0],"type":"VEC4"},{"bufferView":4,"componentType":5126,"count":24,"max":[0,1,0,0],"min":[0,1,0,0],"type":"VEC4"},{"bufferView":5,"componentType":5123,"count":36,"max":[23],"min":[0],"type":"SCALAR"},{"bufferView":6,"componentType":5126,"count":24,"max":[0.125,0.0625,0.125],"min":[-0.125,-0.4375,-0.125],"type":"VEC3"},{"bufferView":7,"componentType":5126,"count":24,"max":[1,1,1],"min":[-1,-1,-1],"type":"VEC3"},{"bufferView":8,"componentType":5126,"count":24,"max":[0.25,0.5],"min":[0,0],"type":"VEC2"},{"bufferView":9,"componentType":5123,"count":24,"max":[0,0,0,0],"min":[0,0,0,0],"type":"VEC4"},{"bufferView":10,"componentType":5126,"count":24,"max":[0,1,0,0],"min":[0,1,0,0],"type":"VEC4"},{"bufferView":11,"componentType":5123,"count":36,"max":[23],"min":[0],"type":"SCALAR"},{"bufferView":12,"componentType":5126,"count":24,"max":[0.125,0.0625,0.125],"min":[-0.0625,-0.5,-0.125],"type":"VEC3"},{"bufferView":13,"componentType":5126,"count":24,"max":[1,1,1],"min":[-1,-1,-1],"type":"VEC3"},{"bufferView":14,"componentType":5126,"count":24,"max":[0.25,0.5625],"min":[0,0],"type":"VEC2"},{"bufferView":15,"componentType":5123,"count":24,"max":[0,0,0,0],"min":[0,0,0,0],"type":"VEC4"},{"bufferView":16,"componentType":5126,"count":24,"max":[0,1,0,0],"min":[0,1,0,0],"type":"VEC4"},{"bufferView":17,"componentType":5123,"count":36,"max":[23],"min":[0],"type":"SCALAR"},{"bufferView":18,"componentType":5126,"count":24,"max":[0.0625,0.0625,0.125],"min":[-0.125,-0.5,-0.125],"type":"VEC3"},{"bufferView":19,"componentType":5126,"count":24,"max":[1,1,1],"min":[-1,-1,-1],"type":"VEC3"},{"bufferView":20,"componentType":5126,"count":24,"max":[0.25,0.5625],"min":[0,0],"type":"VEC2"},{"bufferView":21,"componentType":5123,"count":24,"max":[0,0,0,0],"min":[0,0,0,0],"type":"VEC4"},{"bufferView":22,"componentType":5126,"count":24,"max":[0,1,0,0],"min":[0,1,0,0],"type":"VEC4"},{"bufferView":23,"componentType":5123,"count":36,"max":[23],"min":[0],"type":"SCALAR"},{"bufferView":24,"componentType":5126,"count":24,"max":[0.1875,0.3125,0.1875],"min":[-0.1875,-0.0625,-0.1875],"type":"VEC3"},{"bufferView":25,"componentType":5126,"count":24,"max":[1,1,1],"min":[-1,-1,-1],"type":"VEC3"},{"bufferView":26,"componentType":5126,"count":24,"max":[0.375,0.375],"min":[0,0],"type":"VEC2"},{"bufferView":27,"componentType":5123,"count":24,"max":[0,0,0,0],"min":[0,0,0,0],"type":"VEC4"},{"bufferView":28,"componentType":5126,"count":24,"max":[0,1,0,0],"min":[0,1,0,0],"type":"VEC4"},{"bufferView":29,"componentType":5123,"count":36,"max":[23],"min":[0],"type":"SCALAR"},{"bufferView":30,"componentType":5126,"count":24,"max":[0.125,0.0625,0.125],"min":[-0.125,-0.4375,-0.125],"type":"VEC3"},{"bufferView":31,"componentType":5126,"count":24,"max":[1,1,1],"min":[-1,-1,-1],"type":"VEC3"},{"bufferView":32,"componentType":5126,"count":24,"max":[0.25,0.5],"min":[0,0],"type":"VEC2"},{"bufferView":33,"componentType":5123,"count":24,"max":[0,0,0,0],"min":[0,0,0,0],"type":"VEC4"},{"bufferView":34,"componentType":5126,"count":24,"max":[0,1,0,0],"min":[0,1,0,0],"type":"VEC4"},{"bufferView":35,"componentType":5123,"count":36,"max":[23],"min":[0],"type":"SCALAR"},{"bufferView":36,"componentType":5126,"count":1,"max":[1,0,0,0,0,1,0,0,0,0,1,0,0,0,0,1],"min":[1,0,0,0,0,1,0,0,0,0,1,0,0,0,0,1],"type":"MAT4"},{"bufferView":37,"componentType":5126,"count":1,"max":[1,0,0,0,0,1,0,0,0,0,1,0,0,0,0,1],"min":[1,0,0,0,0,1,0,0,0,0,1,0,0,0,0,1],"type":"MAT4"},{"bufferView":38,"componentType":5126,"count":1,"max":[1,0,0,0,0,1,0,0,0,0,1,0,0,0,0,1],"min":[1,0,0,0,0,1,0,0,0,0,1,0,0,0,0,1],"type":"MAT4"},{"bufferView":39,"componentType":5126,"count":1,"max":[1,0,0,0,0,1,0,0,0,0,1,0,0,0,0,1],"min":[1,0,0,0,0,1,0,0,0,0,1,0,0,0,0,1],"type":"MAT4"},{"bufferView":40,"componentType":5126,"count":1,"max":[1,0,0,0,0,1,0,0,0,0,1,0,0,0,0,1],"min":[1,0,0,0,0,1,0,0,0,0,1,0,0,0,0,1],"type":"MAT4"},{"bufferView":41,"componentType":5126,"count":1,"max":[1,0,0,0,0,1,0,0,0,0,1,0,0,0,0,1],"min":[1,0,0,0,0,1,0,0,0,0,1,0,0,0,0,1],"type":"MAT4"},{"bufferView":42,"componentType":5126,"count":5,"max":[1],"min":[0],"type":"SCALAR"},{"bufferView":43,"componentType":5126,"count":5,"max":[0.3420201539993286,0,0,1],"min":[-0.3420201539993286,0,0,0.9396926164627075],"type":"VEC4"},{"bufferView":44,"componentType":5126,"count":5,"max":[1],"min":[0],"type":"SCALAR"},{"bufferView":45,"componentType":5126,"count":5,"max":[0.3420201539993286,0,0,1],"min":[-0.3420201539993286,0,0,0.9396926164627075],"type":"VEC4"},{"bufferView":46,"componentType":5126,"count":5,"max":[1],"min":[0],"type":"SCALAR"},{"bufferView":47,"componentType":5126,"count":5,"max":[0.3420201539993286,0,0,1],"min":[-0.3420201539993286,0,0,0.9396926164627075],"type":"VEC4"},{"bufferView":48,"componentType":5126,"count":5,"max":[1],"min":[0],"type":"SCALAR"},{"bufferView":49,"componentType":5126,"count":5,"max":[0.3420201539993286,0,0,1],"min":[-0.3420201539993286,0,0,0.9396926164627075],"type":"VEC4"}],"materials":[{"pbrMetallicRoughness":{"metallicFactor":0,"roughnessFactor":1},"alphaMode":"MASK","alphaCutoff":0.05,"doubleSided":true},{"pbrMetallicRoughness":{"metallicFactor":0,"roughnessFactor":1},"alphaMode":"MASK","alphaCutoff":0.05,"doubleSided":true},{"pbrMetallicRoughness":{"metallicFactor":0,"roughnessFactor":1},"alphaMode":"MASK","alphaCutoff":0.05,"doubleSided":true}],"meshes":[{"primitives":[{"mode":4,"attributes":{"POSITION":0,"NORMAL":1,"TEXCOORD_0":2,"JOINTS_0":3,"WEIGHTS_0":4},"indices":5,"material":0}]},{"primitives":[{"mode":4,"attributes":{"POSITION":6,"NORMAL":7,"TEXCOORD_0":8,"JOINTS_0":9,"WEIGHTS_0":10},"indices":11,"material":1}]},{"primitives":[{"mode":4,"attributes":{"POSITION":12,"NORMAL":13,"TEXCOORD_0":14,"JOINTS_0":15,"WEIGHTS_0":16},"indices":17,"material":2}]},{"primitives":[{"mode":4,"attributes":{"POSITION":18,"NORMAL":19,"TEXCOORD_0":20,"JOINTS_0":21,"WEIGHTS_0":22},"indices":23,"material":2}]},{"primitives":[{"mode":4,"attributes":{"POSITION":24,"NORMAL":25,"TEXCOORD_0":26,"JOINTS_0":27,"WEIGHTS_0":28},"indices":29,"material":2}]},{"primitives":[{"mode":4,"attributes":{"POSITION":30,"NORMAL":31,"TEXCOORD_0":32,"JOINTS_0":33,"WEIGHTS_0":34},"indices":35,"material":1}]}],"skins":[{"inverseBindMatrices":36,"joints":[0],"skeleton":0},{"inverseBindMatrices":37,"joints":[2],"skeleton":2},{"inverseBindMatrices":38,"joints":[4],"skeleton":4},{"inverseBindMatrices":39,"joints":[6],"skeleton":6},{"inverseBindMatrices":40,"joints":[8],"skeleton":8},{"inverseBindMatrices":41,"joints":[10],"skeleton":10}],"animations":[{"name":"animation","samplers":[{"input":42,"output":43,"interpolation":"LINEAR"},{"input":44,"output":45,"interpolation":"LINEAR"},{"input":46,"output":47,"interpolation":"LINEAR"},{"input":48,"output":49,"interpolation":"LINEAR"}],"channels":[{"sampler":0,"target":{"node":6,"path":"rotation"}},{"sampler":1,"target":{"node":2,"path":"rotation"}},{"sampler":2,"target":{"node":10,"path":"rotation"}},{"sampler":3,"target":{"node":4,"path":"rotation"}}]}]}