<?xml version="1.0" encoding="UTF-8" standalone="no"?><svg xmlns="http://www.w3.org/2000/svg" xmlns:xlink="http://www.w3.org/1999/xlink" contentScriptType="application/ecmascript" contentStyleType="text/css" height="1169px" preserveAspectRatio="none" style="width:1404px;height:1169px;background:#FFFFFA;" version="1.1" viewBox="0 0 1404 1169" width="1404px" zoomAndPan="magnify"><defs><filter height="300%" id="fn2oyswu2c28f" width="300%" x="-1" y="-1"><feGaussianBlur result="blurOut" stdDeviation="2.0"/><feColorMatrix in="blurOut" result="blurOut2" type="matrix" values="0 0 0 0 0 0 0 0 0 0 0 0 0 0 0 0 0 0 .4 0"/><feOffset dx="4.0" dy="4.0" in="blurOut2" result="blurOut3"/><feBlend in="SourceGraphic" in2="blurOut3" mode="normal"/></filter></defs><g><!--MD5=[e7d25c9dc39ec627c4d12ac483ca2357]
class C_0009617396256429424282--><rect codeLine="3" fill="#FEFECE" filter="url(#fn2oyswu2c28f)" height="160.8732" id="C_0009617396256429424282" style="stroke:#A80036;stroke-width:1.5;" width="240" x="278.76" y="994.79"/><ellipse cx="325.51" cy="1010.79" fill="#ADD1B2" rx="11" ry="11" style="stroke:#A80036;stroke-width:1.0;"/><path d="M324.9788,1017.7119 Q323.2288,1017.7119 322.0881,1016.9775 Q320.9631,1016.2275 320.4006,1014.8838 Q319.8538,1013.5244 319.8538,1011.7275 Q319.8538,1009.6963 320.51,1008.2431 Q321.1663,1006.79 322.4475,1006.0088 Q323.7288,1005.2275 325.6038,1005.2275 Q326.4944,1005.2275 327.1663,1005.415 Q327.8381,1005.5869 328.5256,1005.9306 L327.7131,1007.9463 Q327.0881,1007.6338 326.5413,1007.5088 Q326.01,1007.3838 325.5256,1007.3838 Q324.3538,1007.3838 323.6506,1007.915 Q322.9475,1008.4463 322.6506,1009.3994 Q322.3538,1010.3525 322.3538,1011.6181 Q322.3538,1013.6338 323.0725,1014.6025 Q323.7913,1015.5556 325.385,1015.5556 Q325.9788,1015.5556 326.6038,1015.3994 Q327.2288,1015.2431 328.0569,1014.8681 L328.0569,1017.0869 Q327.3225,1017.3994 326.5256,1017.5556 Q325.7444,1017.7119 324.9788,1017.7119 Z " fill="#000000"/><text fill="#000000" font-family="sans-serif" font-size="12" lengthAdjust="spacing" textLength="138" x="346.01" y="1015.446">::MyCraft::BlockCatogary</text><line style="stroke:#A80036;stroke-width:1.5;" x1="279.76" x2="517.76" y1="1026.79" y2="1026.79"/><ellipse cx="289.76" cy="1037.79" fill="#84BE84" rx="3" ry="3" style="stroke:#038048;stroke-width:1.0;"/><text fill="#000000" font-family="sans-serif" font-size="11" lengthAdjust="spacing" textLength="114" x="298.76" y="1042.5489">BlockCatogary() : void</text><ellipse cx="289.76" cy="1052.7719" fill="#84BE84" rx="3" ry="3" style="stroke:#038048;stroke-width:1.0;"/><text fill="#000000" font-family="sans-serif" font-size="11" lengthAdjust="spacing" textLength="120" x="298.76" y="1057.5308">~BlockCatogary() : void</text><line style="stroke:#A80036;stroke-width:1.0;stroke-dasharray:1.0,2.0;" x1="279.76" x2="517.76" y1="1064.7538" y2="1064.7538"/><ellipse cx="289.76" cy="1075.7538" fill="#84BE84" rx="3" ry="3" style="stroke:#038048;stroke-width:1.0;"/><text fill="#000000" font-family="sans-serif" font-size="11" lengthAdjust="spacing" textLength="214" x="298.76" y="1080.5127">getBlock(const int &amp; index) const : GLuint</text><ellipse cx="289.76" cy="1090.7357" fill="#84BE84" rx="3" ry="3" style="stroke:#038048;stroke-width:1.0;"/><text fill="#000000" font-family="sans-serif" font-size="11" lengthAdjust="spacing" textLength="149" x="298.76" y="1095.4946">getTexCoord() const : GLuint</text><line style="stroke:#A80036;stroke-width:1.5;" x1="279.76" x2="517.76" y1="1102.7176" y2="1102.7176"/><ellipse cx="289.76" cy="1113.7176" fill="none" rx="3" ry="3" style="stroke:#038048;stroke-width:1.0;"/><text fill="#000000" font-family="sans-serif" font-size="11" lengthAdjust="spacing" text-decoration="underline" textLength="132" x="298.76" y="1118.4765">Default : BlockCatogary *</text><rect fill="none" height="6" style="stroke:#C82930;stroke-width:1.0;" width="6" x="286.76" y="1125.6994"/><text fill="#000000" font-family="sans-serif" font-size="11" lengthAdjust="spacing" textLength="122" x="298.76" y="1133.4584">__blockTexture : GLuint</text><rect fill="none" height="6" style="stroke:#C82930;stroke-width:1.0;" width="6" x="286.76" y="1140.6813"/><text fill="#000000" font-family="sans-serif" font-size="11" lengthAdjust="spacing" textLength="115" x="298.76" y="1148.4402">__ptr : vector&lt;GLuint&gt;</text><!--MD5=[1b1bec884148fcff86be9fa1ab641ccc]
class C_0017142404441902118391--><rect codeLine="15" fill="#FEFECE" filter="url(#fn2oyswu2c28f)" height="77.9638" id="C_0017142404441902118391" style="stroke:#A80036;stroke-width:1.5;" width="227" x="73.26" y="758.91"/><ellipse cx="88.26" cy="774.91" fill="#EB937F" rx="11" ry="11" style="stroke:#A80036;stroke-width:1.0;"/><path d="M84.6194,781.41 L84.6194,769.2694 L92.2756,769.2694 L92.2756,771.3944 L86.9944,771.3944 L86.9944,774.0506 L92.01,774.0506 L92.01,776.1756 L86.9944,776.1756 L86.9944,779.285 L92.2756,779.285 L92.2756,781.41 L84.6194,781.41 Z " fill="#000000"/><text fill="#000000" font-family="sans-serif" font-size="12" lengthAdjust="spacing" textLength="195" x="102.26" y="779.566">::MyCraft::BlockCatogary::Catogary</text><line style="stroke:#A80036;stroke-width:1.5;" x1="74.26" x2="299.26" y1="790.91" y2="790.91"/><text fill="#000000" font-family="sans-serif" font-size="11" lengthAdjust="spacing" textLength="15" x="79.26" y="806.6689">Air</text><text fill="#000000" font-family="sans-serif" font-size="11" lengthAdjust="spacing" textLength="20" x="79.26" y="821.6508">Dirt</text><line style="stroke:#A80036;stroke-width:1.5;" x1="74.26" x2="299.26" y1="828.8738" y2="828.8738"/><!--MD5=[670bff74d936de5b430137d2f40132c7]
class C_0016291758929191873705--><rect codeLine="20" fill="#FEFECE" filter="url(#fn2oyswu2c28f)" height="235.7827" id="C_0016291758929191873705" style="stroke:#A80036;stroke-width:1.5;" width="358" x="193.76" y="7"/><ellipse cx="325.01" cy="23" fill="#ADD1B2" rx="11" ry="11" style="stroke:#A80036;stroke-width:1.0;"/><path d="M324.4788,29.9219 Q322.7288,29.9219 321.5881,29.1875 Q320.4631,28.4375 319.9006,27.0938 Q319.3538,25.7344 319.3538,23.9375 Q319.3538,21.9063 320.01,20.4531 Q320.6663,19 321.9475,18.2188 Q323.2288,17.4375 325.1038,17.4375 Q325.9944,17.4375 326.6663,17.625 Q327.3381,17.7969 328.0256,18.1406 L327.2131,20.1563 Q326.5881,19.8438 326.0413,19.7188 Q325.51,19.5938 325.0256,19.5938 Q323.8538,19.5938 323.1506,20.125 Q322.4475,20.6563 322.1506,21.6094 Q321.8538,22.5625 321.8538,23.8281 Q321.8538,25.8438 322.5725,26.8125 Q323.2913,27.7656 324.885,27.7656 Q325.4788,27.7656 326.1038,27.6094 Q326.7288,27.4531 327.5569,27.0781 L327.5569,29.2969 Q326.8225,29.6094 326.0256,29.7656 Q325.2444,29.9219 324.4788,29.9219 Z " fill="#000000"/><text fill="#000000" font-family="sans-serif" font-size="12" lengthAdjust="spacing" textLength="87" x="345.51" y="27.656">::MyCraft::Block</text><line style="stroke:#A80036;stroke-width:1.5;" x1="194.76" x2="550.76" y1="39" y2="39"/><ellipse cx="204.76" cy="50" fill="#84BE84" rx="3" ry="3" style="stroke:#038048;stroke-width:1.0;"/><text fill="#000000" font-family="sans-serif" font-size="11" lengthAdjust="spacing" textLength="66" x="213.76" y="54.7589">Block() : void</text><ellipse cx="204.76" cy="64.9819" fill="#84BE84" rx="3" ry="3" style="stroke:#038048;stroke-width:1.0;"/><text fill="#000000" font-family="sans-serif" font-size="11" lengthAdjust="spacing" textLength="72" x="213.76" y="69.7408">~Block() : void</text><line style="stroke:#A80036;stroke-width:1.0;stroke-dasharray:1.0,2.0;" x1="194.76" x2="550.76" y1="76.9638" y2="76.9638"/><ellipse cx="204.76" cy="87.9638" fill="#84BE84" rx="3" ry="3" style="stroke:#038048;stroke-width:1.0;"/><text fill="#000000" font-family="sans-serif" font-size="11" lengthAdjust="spacing" textLength="147" x="213.76" y="92.7227">getHoverPlane() const : char</text><ellipse cx="204.76" cy="102.9457" fill="#84BE84" rx="3" ry="3" style="stroke:#038048;stroke-width:1.0;"/><text fill="#000000" font-family="sans-serif" font-size="11" lengthAdjust="spacing" textLength="218" x="213.76" y="107.7046">getType() const : BlockCatogary::Catogary</text><polygon fill="#FFFF44" points="204.76,112.9276,208.76,116.9276,204.76,120.9276,200.76,116.9276" style="stroke:#B38D22;stroke-width:1.0;"/><text fill="#000000" font-family="sans-serif" font-size="11" lengthAdjust="spacing" textLength="107" x="213.76" y="122.6865">glDraw() const : void</text><ellipse cx="204.76" cy="132.9094" fill="#84BE84" rx="3" ry="3" style="stroke:#038048;stroke-width:1.0;"/><text fill="#000000" font-family="sans-serif" font-size="11" lengthAdjust="spacing" textLength="211" x="213.76" y="137.6684">setHoverPlane(const char &amp; index) : void</text><ellipse cx="204.76" cy="147.8913" fill="#84BE84" rx="3" ry="3" style="stroke:#038048;stroke-width:1.0;"/><text fill="#000000" font-family="sans-serif" font-size="11" lengthAdjust="spacing" textLength="332" x="213.76" y="152.6502">setPosition(const float &amp; x, const float &amp; y, const float &amp; z) : void</text><ellipse cx="204.76" cy="162.8732" fill="#84BE84" rx="3" ry="3" style="stroke:#038048;stroke-width:1.0;"/><text fill="#000000" font-family="sans-serif" font-size="11" lengthAdjust="spacing" textLength="233" x="213.76" y="167.6321">setPosition(const glm::vec3 &amp; position) : void</text><ellipse cx="204.76" cy="177.8551" fill="#84BE84" rx="3" ry="3" style="stroke:#038048;stroke-width:1.0;"/><text fill="#000000" font-family="sans-serif" font-size="11" lengthAdjust="spacing" textLength="276" x="213.76" y="182.614">setType(const BlockCatogary::Catogary &amp; type) : void</text><line style="stroke:#A80036;stroke-width:1.5;" x1="194.76" x2="550.76" y1="189.837" y2="189.837"/><rect fill="none" height="6" style="stroke:#C82930;stroke-width:1.0;" width="6" x="201.76" y="197.837"/><text fill="#000000" font-family="sans-serif" font-size="11" lengthAdjust="spacing" textLength="102" x="213.76" y="205.5959">__hoverPlane : char</text><rect fill="none" height="6" style="stroke:#C82930;stroke-width:1.0;" width="6" x="201.76" y="212.8189"/><text fill="#000000" font-family="sans-serif" font-size="11" lengthAdjust="spacing" textLength="111" x="213.76" y="220.5778">__position : glm::vec3</text><rect fill="none" height="6" style="stroke:#C82930;stroke-width:1.0;" width="6" x="201.76" y="227.8008"/><text fill="#000000" font-family="sans-serif" font-size="11" lengthAdjust="spacing" textLength="172" x="213.76" y="235.5597">__type : BlockCatogary::Catogary</text><!--MD5=[9c145bdc900accab937aa6c4cd719e89]
class C_0001531427901889754508--><rect codeLine="37" fill="#FEFECE" filter="url(#fn2oyswu2c28f)" height="220.8008" id="C_0001531427901889754508" style="stroke:#A80036;stroke-width:1.5;" width="438" x="154.76" y="361"/><ellipse cx="323.51" cy="377" fill="#ADD1B2" rx="11" ry="11" style="stroke:#A80036;stroke-width:1.0;"/><path d="M322.9788,383.9219 Q321.2288,383.9219 320.0881,383.1875 Q318.9631,382.4375 318.4006,381.0938 Q317.8538,379.7344 317.8538,377.9375 Q317.8538,375.9063 318.51,374.4531 Q319.1663,373 320.4475,372.2188 Q321.7288,371.4375 323.6038,371.4375 Q324.4944,371.4375 325.1663,371.625 Q325.8381,371.7969 326.5256,372.1406 L325.7131,374.1563 Q325.0881,373.8438 324.5413,373.7188 Q324.01,373.5938 323.5256,373.5938 Q322.3538,373.5938 321.6506,374.125 Q320.9475,374.6563 320.6506,375.6094 Q320.3538,376.5625 320.3538,377.8281 Q320.3538,379.8438 321.0725,380.8125 Q321.7913,381.7656 323.385,381.7656 Q323.9788,381.7656 324.6038,381.6094 Q325.2288,381.4531 326.0569,381.0781 L326.0569,383.2969 Q325.3225,383.6094 324.5256,383.7656 Q323.7444,383.9219 322.9788,383.9219 Z " fill="#000000"/><text fill="#000000" font-family="sans-serif" font-size="12" lengthAdjust="spacing" textLength="92" x="344.01" y="381.656">::MyCraft::Chunk</text><line style="stroke:#A80036;stroke-width:1.5;" x1="155.76" x2="591.76" y1="393" y2="393"/><ellipse cx="165.76" cy="404" fill="#84BE84" rx="3" ry="3" style="stroke:#038048;stroke-width:1.0;"/><text fill="#000000" font-family="sans-serif" font-size="11" lengthAdjust="spacing" textLength="72" x="174.76" y="408.7589">Chunk() : void</text><ellipse cx="165.76" cy="418.9819" fill="#84BE84" rx="3" ry="3" style="stroke:#038048;stroke-width:1.0;"/><text fill="#000000" font-family="sans-serif" font-size="11" lengthAdjust="spacing" textLength="78" x="174.76" y="423.7408">~Chunk() : void</text><line style="stroke:#A80036;stroke-width:1.0;stroke-dasharray:1.0,2.0;" x1="155.76" x2="591.76" y1="430.9638" y2="430.9638"/><ellipse cx="165.76" cy="441.9638" fill="#84BE84" rx="3" ry="3" style="stroke:#038048;stroke-width:1.0;"/><text fill="#000000" font-family="sans-serif" font-size="11" lengthAdjust="spacing" textLength="270" x="174.76" y="446.7227">at(const int &amp; x, const int &amp; y, const int &amp; z) : Block &amp;</text><ellipse cx="165.76" cy="456.9457" fill="#84BE84" rx="3" ry="3" style="stroke:#038048;stroke-width:1.0;"/><text fill="#000000" font-family="sans-serif" font-size="11" lengthAdjust="spacing" textLength="236" x="174.76" y="461.7046">contains(const glm::vec3 &amp; point) const : bool</text><ellipse cx="165.76" cy="471.9276" fill="#84BE84" rx="3" ry="3" style="stroke:#038048;stroke-width:1.0;"/><text fill="#000000" font-family="sans-serif" font-size="11" lengthAdjust="spacing" textLength="412" x="174.76" y="476.6865">getBlocks(const int &amp; x, const int &amp; y, const int &amp; z) : BlockCatogary::Catogary &amp;</text><polygon fill="#FFFF44" points="165.76,481.9094,169.76,485.9094,165.76,489.9094,161.76,485.9094" style="stroke:#B38D22;stroke-width:1.0;"/><text fill="#000000" font-family="sans-serif" font-size="11" lengthAdjust="spacing" textLength="107" x="174.76" y="491.6684">glDraw() const : void</text><ellipse cx="165.76" cy="501.8913" fill="#84BE84" rx="3" ry="3" style="stroke:#038048;stroke-width:1.0;"/><text fill="#000000" font-family="sans-serif" font-size="11" lengthAdjust="spacing" textLength="237" x="174.76" y="506.6502">setHover(const MyBase3D::Ray3f &amp; ray) : bool</text><ellipse cx="165.76" cy="516.8732" fill="#84BE84" rx="3" ry="3" style="stroke:#038048;stroke-width:1.0;"/><text fill="#000000" font-family="sans-serif" font-size="11" lengthAdjust="spacing" textLength="302" x="174.76" y="521.6321">setPosition(const int &amp; x, const int &amp; y, const int &amp; z) : void</text><ellipse cx="165.76" cy="531.8551" fill="#84BE84" rx="3" ry="3" style="stroke:#038048;stroke-width:1.0;"/><text fill="#000000" font-family="sans-serif" font-size="11" lengthAdjust="spacing" textLength="233" x="174.76" y="536.614">setPosition(const glm::vec3 &amp; position) : void</text><line style="stroke:#A80036;stroke-width:1.5;" x1="155.76" x2="591.76" y1="543.837" y2="543.837"/><rect fill="none" height="6" style="stroke:#C82930;stroke-width:1.0;" width="6" x="162.76" y="551.837"/><text fill="#000000" font-family="sans-serif" font-size="11" lengthAdjust="spacing" textLength="140" x="174.76" y="559.5959">__blocks : Block[16][16][16]</text><rect fill="none" height="6" style="stroke:#C82930;stroke-width:1.0;" width="6" x="162.76" y="566.8189"/><text fill="#000000" font-family="sans-serif" font-size="11" lengthAdjust="spacing" textLength="111" x="174.76" y="574.5778">__position : glm::vec3</text><!--MD5=[a032b8a7cc45747530963d286729af37]
class C_0011386574597552260978--><rect codeLine="53" fill="#FEFECE" filter="url(#fn2oyswu2c28f)" height="235.7827" id="C_0011386574597552260978" style="stroke:#A80036;stroke-width:1.5;" width="553" x="335.26" y="680"/><ellipse cx="562.51" cy="696" fill="#ADD1B2" rx="11" ry="11" style="stroke:#A80036;stroke-width:1.0;"/><path d="M561.9788,702.9219 Q560.2288,702.9219 559.0881,702.1875 Q557.9631,701.4375 557.4006,700.0938 Q556.8538,698.7344 556.8538,696.9375 Q556.8538,694.9063 557.51,693.4531 Q558.1663,692 559.4475,691.2188 Q560.7288,690.4375 562.6038,690.4375 Q563.4944,690.4375 564.1663,690.625 Q564.8381,690.7969 565.5256,691.1406 L564.7131,693.1563 Q564.0881,692.8438 563.5413,692.7188 Q563.01,692.5938 562.5256,692.5938 Q561.3538,692.5938 560.6506,693.125 Q559.9475,693.6563 559.6506,694.6094 Q559.3538,695.5625 559.3538,696.8281 Q559.3538,698.8438 560.0725,699.8125 Q560.7913,700.7656 562.385,700.7656 Q562.9788,700.7656 563.6038,700.6094 Q564.2288,700.4531 565.0569,700.0781 L565.0569,702.2969 Q564.3225,702.6094 563.5256,702.7656 Q562.7444,702.9219 561.9788,702.9219 Z " fill="#000000"/><text fill="#000000" font-family="sans-serif" font-size="12" lengthAdjust="spacing" textLength="90" x="583.01" y="700.656">::MyCraft::World</text><line style="stroke:#A80036;stroke-width:1.5;" x1="336.26" x2="887.26" y1="712" y2="712"/><ellipse cx="346.26" cy="723" fill="#84BE84" rx="3" ry="3" style="stroke:#038048;stroke-width:1.0;"/><text fill="#000000" font-family="sans-serif" font-size="11" lengthAdjust="spacing" textLength="276" x="355.26" y="727.7589">World(const int &amp; x, const int &amp; y, const int &amp; z) : void</text><ellipse cx="346.26" cy="737.9819" fill="#84BE84" rx="3" ry="3" style="stroke:#038048;stroke-width:1.0;"/><text fill="#000000" font-family="sans-serif" font-size="11" lengthAdjust="spacing" textLength="76" x="355.26" y="742.7408">~World() : void</text><line style="stroke:#A80036;stroke-width:1.0;stroke-dasharray:1.0,2.0;" x1="336.26" x2="887.26" y1="749.9638" y2="749.9638"/><ellipse cx="346.26" cy="760.9638" fill="#84BE84" rx="3" ry="3" style="stroke:#038048;stroke-width:1.0;"/><text fill="#000000" font-family="sans-serif" font-size="11" lengthAdjust="spacing" textLength="318" x="355.26" y="765.7227">at(const int &amp; x, const int &amp; y, const int &amp; z) : MyCraft::Block &amp;</text><polygon fill="#FFFF44" points="346.26,770.9457,350.26,774.9457,346.26,778.9457,342.26,774.9457" style="stroke:#B38D22;stroke-width:1.0;"/><text fill="#000000" font-family="sans-serif" font-size="11" lengthAdjust="spacing" textLength="107" x="355.26" y="780.7046">glDraw() const : void</text><polygon fill="#FFFF44" points="346.26,785.9276,350.26,789.9276,346.26,793.9276,342.26,789.9276" style="stroke:#B38D22;stroke-width:1.0;"/><text fill="#000000" font-family="sans-serif" font-size="11" lengthAdjust="spacing" textLength="527" x="355.26" y="795.6865">handle(sf::RenderWindow &amp; window, const sf::RenderStates &amp; state = sf::RenderStates::Default) : bool</text><ellipse cx="346.26" cy="805.9094" fill="#84BE84" rx="3" ry="3" style="stroke:#038048;stroke-width:1.0;"/><text fill="#000000" font-family="sans-serif" font-size="11" lengthAdjust="spacing" textLength="251" x="355.26" y="810.6684">setHover(const MyBase3D::Ray3f &amp; hover) : bool</text><line style="stroke:#A80036;stroke-width:1.5;" x1="336.26" x2="887.26" y1="817.8913" y2="817.8913"/><rect fill="none" height="6" style="stroke:#C82930;stroke-width:1.0;" width="6" x="343.26" y="825.8913"/><text fill="#000000" font-family="sans-serif" font-size="11" lengthAdjust="spacing" textLength="46" x="355.26" y="833.6502">hX : float</text><rect fill="none" height="6" style="stroke:#C82930;stroke-width:1.0;" width="6" x="343.26" y="840.8732"/><text fill="#000000" font-family="sans-serif" font-size="11" lengthAdjust="spacing" textLength="46" x="355.26" y="848.6321">hY : float</text><rect fill="none" height="6" style="stroke:#C82930;stroke-width:1.0;" width="6" x="343.26" y="855.8551"/><text fill="#000000" font-family="sans-serif" font-size="11" lengthAdjust="spacing" textLength="46" x="355.26" y="863.614">hZ : float</text><rect fill="none" height="6" style="stroke:#C82930;stroke-width:1.0;" width="6" x="343.26" y="870.837"/><text fill="#000000" font-family="sans-serif" font-size="11" lengthAdjust="spacing" textLength="179" x="355.26" y="878.5959">pChunks : MyCraft::Chunk[3][3][3]</text><rect fill="none" height="6" style="stroke:#C82930;stroke-width:1.0;" width="6" x="343.26" y="885.8189"/><text fill="#000000" font-family="sans-serif" font-size="11" lengthAdjust="spacing" textLength="157" x="355.26" y="893.5778">pFrameAlarm : MyBase::Alarm</text><rect fill="none" height="6" style="stroke:#C82930;stroke-width:1.0;" width="6" x="343.26" y="900.8008"/><text fill="#000000" font-family="sans-serif" font-size="11" lengthAdjust="spacing" textLength="108" x="355.26" y="908.5597">pPosition : glm::vec3</text><!--MD5=[9fadbdd988303b64e871b3a9f1449597]
class C_0002492648447122705079--><rect codeLine="70" fill="#FEFECE" filter="url(#fn2oyswu2c28f)" height="115.9276" id="C_0002492648447122705079" style="stroke:#A80036;stroke-width:1.5;" width="522" x="610.76" y="66.54"/><ellipse cx="808.01" cy="82.54" fill="#ADD1B2" rx="11" ry="11" style="stroke:#A80036;stroke-width:1.0;"/><path d="M807.4788,89.4619 Q805.7288,89.4619 804.5881,88.7275 Q803.4631,87.9775 802.9006,86.6338 Q802.3538,85.2744 802.3538,83.4775 Q802.3538,81.4463 803.01,79.9931 Q803.6663,78.54 804.9475,77.7588 Q806.2288,76.9775 808.1038,76.9775 Q808.9944,76.9775 809.6663,77.165 Q810.3381,77.3369 811.0256,77.6806 L810.2131,79.6963 Q809.5881,79.3838 809.0413,79.2588 Q808.51,79.1338 808.0256,79.1338 Q806.8538,79.1338 806.1506,79.665 Q805.4475,80.1963 805.1506,81.1494 Q804.8538,82.1025 804.8538,83.3681 Q804.8538,85.3838 805.5725,86.3525 Q806.2913,87.3056 807.885,87.3056 Q808.4788,87.3056 809.1038,87.1494 Q809.7288,86.9931 810.5569,86.6181 L810.5569,88.8369 Q809.8225,89.1494 809.0256,89.3056 Q808.2444,89.4619 807.4788,89.4619 Z " fill="#000000"/><text fill="#000000" font-family="sans-serif" font-size="12" lengthAdjust="spacing" textLength="119" x="828.51" y="87.196">::MyCraft::Coordinate</text><line style="stroke:#A80036;stroke-width:1.5;" x1="611.76" x2="1131.76" y1="98.54" y2="98.54"/><ellipse cx="621.76" cy="109.54" fill="#84BE84" rx="3" ry="3" style="stroke:#038048;stroke-width:1.0;"/><text fill="#000000" font-family="sans-serif" font-size="11" lengthAdjust="spacing" textLength="97" x="630.76" y="114.2989">Coordinate() : void</text><ellipse cx="621.76" cy="124.5219" fill="#84BE84" rx="3" ry="3" style="stroke:#038048;stroke-width:1.0;"/><text fill="#000000" font-family="sans-serif" font-size="11" lengthAdjust="spacing" textLength="103" x="630.76" y="129.2808">~Coordinate() : void</text><line style="stroke:#A80036;stroke-width:1.0;stroke-dasharray:1.0,2.0;" x1="611.76" x2="1131.76" y1="136.5038" y2="136.5038"/><polygon fill="#FFFF44" points="621.76,142.5038,625.76,146.5038,621.76,150.5038,617.76,146.5038" style="stroke:#B38D22;stroke-width:1.0;"/><text fill="#000000" font-family="sans-serif" font-size="11" lengthAdjust="spacing" textLength="496" x="630.76" y="152.2627">draw(sf::RenderTarget &amp; target, sf::RenderStates state = = sf::RenderStates::Default) const : void</text><polygon fill="#FFFF44" points="621.76,157.4857,625.76,161.4857,621.76,165.4857,617.76,161.4857" style="stroke:#B38D22;stroke-width:1.0;"/><text fill="#000000" font-family="sans-serif" font-size="11" lengthAdjust="spacing" textLength="107" x="630.76" y="167.2446">glDraw() const : void</text><line style="stroke:#A80036;stroke-width:1.5;" x1="611.76" x2="1131.76" y1="174.4676" y2="174.4676"/><!--MD5=[f46d66e2584f8d11dd3a5470d782c77c]
class C_0012287643417462611281--><rect codeLine="79" fill="#FEFECE" filter="url(#fn2oyswu2c28f)" height="235.7827" id="C_0012287643417462611281" style="stroke:#A80036;stroke-width:1.5;" width="668" x="722.76" y="353.11"/><ellipse cx="992.51" cy="369.11" fill="#ADD1B2" rx="11" ry="11" style="stroke:#A80036;stroke-width:1.0;"/><path d="M991.9788,376.0319 Q990.2288,376.0319 989.0881,375.2975 Q987.9631,374.5475 987.4006,373.2038 Q986.8538,371.8444 986.8538,370.0475 Q986.8538,368.0163 987.51,366.5631 Q988.1663,365.11 989.4475,364.3288 Q990.7288,363.5475 992.6038,363.5475 Q993.4944,363.5475 994.1663,363.735 Q994.8381,363.9069 995.5256,364.2506 L994.7131,366.2663 Q994.0881,365.9538 993.5413,365.8288 Q993.01,365.7038 992.5256,365.7038 Q991.3538,365.7038 990.6506,366.235 Q989.9475,366.7663 989.6506,367.7194 Q989.3538,368.6725 989.3538,369.9381 Q989.3538,371.9538 990.0725,372.9225 Q990.7913,373.8756 992.385,373.8756 Q992.9788,373.8756 993.6038,373.7194 Q994.2288,373.5631 995.0569,373.1881 L995.0569,375.4069 Q994.3225,375.7194 993.5256,375.8756 Q992.7444,376.0319 991.9788,376.0319 Z " fill="#000000"/><text fill="#000000" font-family="sans-serif" font-size="12" lengthAdjust="spacing" textLength="120" x="1013.01" y="373.766">::MyCraft::GameForm</text><line style="stroke:#A80036;stroke-width:1.5;" x1="723.76" x2="1389.76" y1="385.11" y2="385.11"/><ellipse cx="733.76" cy="396.11" fill="#84BE84" rx="3" ry="3" style="stroke:#038048;stroke-width:1.0;"/><text fill="#000000" font-family="sans-serif" font-size="11" lengthAdjust="spacing" textLength="342" x="742.76" y="400.8689">GameForm(sf::RenderWindow &amp; window, const int &amp; index) : void</text><ellipse cx="733.76" cy="411.0919" fill="#84BE84" rx="3" ry="3" style="stroke:#038048;stroke-width:1.0;"/><text fill="#000000" font-family="sans-serif" font-size="11" lengthAdjust="spacing" textLength="102" x="742.76" y="415.8508">~GameForm() : void</text><line style="stroke:#A80036;stroke-width:1.0;stroke-dasharray:1.0,2.0;" x1="723.76" x2="1389.76" y1="423.0738" y2="423.0738"/><rect fill="#F24D5C" height="6" style="stroke:#C82930;stroke-width:1.0;" width="6" x="730.76" y="431.0738"/><text fill="#000000" font-family="sans-serif" font-size="11" lengthAdjust="spacing" textLength="639" x="742.76" y="438.8327">AfterCatch(sf::RenderWindow &amp; window, sf::Event &amp; event, const sf::RenderStates &amp; state = sf::RenderStates::Default) : bool</text><rect fill="#F24D5C" height="6" style="stroke:#C82930;stroke-width:1.0;" width="6" x="730.76" y="446.0557"/><text fill="#000000" font-family="sans-serif" font-size="11" lengthAdjust="spacing" textLength="642" x="742.76" y="453.8146">CatchEvent(sf::RenderWindow &amp; window, sf::Event &amp; event, const sf::RenderStates &amp; state = sf::RenderStates::Default) : bool</text><polygon fill="#FFFF44" points="733.76,459.0376,737.76,463.0376,733.76,467.0376,729.76,463.0376" style="stroke:#B38D22;stroke-width:1.0;"/><text fill="#000000" font-family="sans-serif" font-size="11" lengthAdjust="spacing" textLength="496" x="742.76" y="468.7965">draw(sf::RenderTarget &amp; target, sf::RenderStates state = = sf::RenderStates::Default) const : void</text><rect fill="#F24D5C" height="6" style="stroke:#C82930;stroke-width:1.0;" width="6" x="730.76" y="476.0194"/><text fill="#000000" font-family="sans-serif" font-size="11" lengthAdjust="spacing" textLength="527" x="742.76" y="483.7784">handle(sf::RenderWindow &amp; window, const sf::RenderStates &amp; state = sf::RenderStates::Default) : bool</text><ellipse cx="733.76" cy="494.0013" fill="#84BE84" rx="3" ry="3" style="stroke:#038048;stroke-width:1.0;"/><text fill="#000000" font-family="sans-serif" font-size="11" lengthAdjust="spacing" textLength="304" x="742.76" y="498.7602">move(const float &amp; x, const float &amp; y, const float &amp; z) : bool</text><line style="stroke:#A80036;stroke-width:1.5;" x1="723.76" x2="1389.76" y1="505.9832" y2="505.9832"/><rect fill="none" height="6" style="stroke:#C82930;stroke-width:1.0;" width="6" x="730.76" y="513.9832"/><text fill="#000000" font-family="sans-serif" font-size="11" lengthAdjust="spacing" textLength="157" x="742.76" y="521.7421">pFrameAlarm : MyBase::Alarm</text><rect fill="none" height="6" style="stroke:#C82930;stroke-width:1.0;" width="6" x="730.76" y="528.9651"/><text fill="#000000" font-family="sans-serif" font-size="11" lengthAdjust="spacing" textLength="72" x="742.76" y="536.724">pSpeed : float</text><rect fill="none" height="6" style="stroke:#C82930;stroke-width:1.0;" width="6" x="730.76" y="543.947"/><text fill="#000000" font-family="sans-serif" font-size="11" lengthAdjust="spacing" textLength="152" x="742.76" y="551.7059">pWindowCenter : sf::Vector2i</text><rect fill="none" height="6" style="stroke:#C82930;stroke-width:1.0;" width="6" x="730.76" y="558.9289"/><text fill="#000000" font-family="sans-serif" font-size="11" lengthAdjust="spacing" textLength="80" x="742.76" y="566.6878">pWorld : World</text><rect fill="none" height="6" style="stroke:#C82930;stroke-width:1.0;" width="6" x="730.76" y="573.9108"/><text fill="#000000" font-family="sans-serif" font-size="11" lengthAdjust="spacing" textLength="87" x="742.76" y="581.6697">pZVelocity : float</text><!--MD5=[9c0b160279b2c738ec9036da58193fbe]
link C_0009617396256429424282 to C_0009617396256429424282--><path codeLine="95" d="M518.99,1054.23 C539.53,1057.1 553.76,1064.1 553.76,1075.22 C553.76,1085.22 542.27,1091.88 525.04,1095.21 " fill="none" id="C_0009617396256429424282-to-C_0009617396256429424282" style="stroke:#A80036;stroke-width:1.0;"/><polygon fill="#A80036" points="520.48,1095.97,530.0117,1098.4494,525.4131,1095.155,528.7076,1090.5564,520.48,1095.97" style="stroke:#A80036;stroke-width:1.0;"/><ellipse cx="564.76" cy="1076.073" fill="none" rx="3" ry="3" style="stroke:#038048;stroke-width:1.0;"/><text fill="#000000" font-family="sans-serif" font-size="13" lengthAdjust="spacing" textLength="43" x="571.76" y="1080.617">Default</text><!--MD5=[6e7516a7bdfebcccf6bdf7a0a111a607]
link C_0017142404441902118391 to C_0009617396256429424282--><path codeLine="96" d="M216.24,837.18 C244.85,874.34 289.4,932.2 327.32,981.45 " fill="none" id="C_0017142404441902118391-to-C_0009617396256429424282" style="stroke:#A80036;stroke-width:1.0;"/><ellipse cx="331.5123" cy="986.889" fill="#FFFFFF" rx="8" ry="8" style="stroke:#A80036;stroke-width:1.0;"/><line style="stroke:#A80036;stroke-width:1.0;" x1="326.6346" x2="336.39" y1="980.548" y2="993.23"/><line style="stroke:#A80036;stroke-width:1.0;" x1="337.8533" x2="325.1713" y1="982.0113" y2="991.7667"/><!--MD5=[de1c5bc609a7ed21a17f0629223c19db]
reverse link C_0016291758929191873705 to C_0017142404441902118391--><path codeLine="97" d="M182.07,214.46 C133.39,247.01 87.12,288.94 59.76,341 C6,443.29 26.98,490.19 59.76,601 C77.75,661.83 121.21,721.5 152.27,758.69 " fill="none" id="C_0016291758929191873705-backto-C_0017142404441902118391" style="stroke:#A80036;stroke-width:1.0;"/><polygon fill="#FFFFFA" points="192.88,207.42,185.6694,207.3365,182.819,213.9603,190.0296,214.0438,192.88,207.42" style="stroke:#A80036;stroke-width:1.0;"/><rect fill="none" height="6" style="stroke:#C82930;stroke-width:1.0;" width="6" x="62.76" y="468.853"/><text fill="#000000" font-family="sans-serif" font-size="13" lengthAdjust="spacing" textLength="39" x="72.76" y="476.397">__type</text><!--MD5=[ab9c73f412934c491e5eb325863c260c]
reverse link C_0016291758929191873705 to C_0001531427901889754508--><path codeLine="98" d="M320.86,247.95 C316.72,268.8 315.29,290.38 318.76,311 C321.54,327.57 325.85,344.71 330.86,361.34 " fill="none" id="C_0016291758929191873705-backto-C_0001531427901889754508" style="stroke:#A80036;stroke-width:1.0;stroke-dasharray:7.0,7.0;"/><polygon fill="#A80036" points="321.85,243.28,316.0594,251.2467,320.8063,248.1698,323.8831,252.9167,321.85,243.28" style="stroke:#A80036;stroke-width:1.0;"/><ellipse cx="324.76" cy="302.353" fill="none" rx="3" ry="3" style="stroke:#038048;stroke-width:1.0;"/><text fill="#000000" font-family="sans-serif" font-size="13" lengthAdjust="spacing" textLength="49" x="331.76" y="306.897">«friend»</text><!--MD5=[cb83796108ef340ce07d1a5e5f80c98a]
reverse link C_0001531427901889754508 to C_0016291758929191873705--><path codeLine="100" d="M383.97,346.84 C384.7,334.74 385.32,322.64 385.76,311 C386.6,288.58 386.03,264.66 384.75,241.71 " fill="none" id="C_0001531427901889754508-backto-C_0016291758929191873705" style="stroke:#A80036;stroke-width:1.0;"/><polygon fill="#FFFFFA" points="383.17,359.5,387.5439,353.7669,383.9341,347.5244,379.5602,353.2575,383.17,359.5" style="stroke:#A80036;stroke-width:1.0;"/><rect fill="none" height="6" style="stroke:#C82930;stroke-width:1.0;" width="6" x="389.12" y="299.353"/><text fill="#000000" font-family="sans-serif" font-size="13" lengthAdjust="spacing" textLength="50" x="399.12" y="306.897">__blocks</text><text fill="#000000" font-family="sans-serif" font-size="13" lengthAdjust="spacing" textLength="28" x="356.2601" y="265.0957">4096</text><!--MD5=[f87f90e3f02ad113c83e37e152b0b732]
link C_0001531427901889754508 to C_0017142404441902118391--><path codeLine="99" d="M311.23,580.64 C277.32,639.55 237.29,709.1 211.96,753.1 " fill="none" id="C_0001531427901889754508-to-C_0017142404441902118391" style="stroke:#A80036;stroke-width:1.0;stroke-dasharray:7.0,7.0;"/><polygon fill="#A80036" points="209.55,757.29,217.5006,751.4773,212.0399,752.9541,210.5631,747.4934,209.55,757.29" style="stroke:#A80036;stroke-width:1.0;"/><!--MD5=[195b23eb20149d6ace0c3087feea4cdb]
reverse link C_0001531427901889754508 to C_0011386574597552260978--><path codeLine="101" d="M412.43,586.46 C422.3,608.5 434.07,630.71 447.76,650 C454.95,660.13 462.95,670.06 471.46,679.67 " fill="none" id="C_0001531427901889754508-backto-C_0011386574597552260978" style="stroke:#A80036;stroke-width:1.0;stroke-dasharray:7.0,7.0;"/><polygon fill="#A80036" points="410.44,581.94,410.4085,591.7888,412.4561,586.5155,417.7294,588.5631,410.44,581.94" style="stroke:#A80036;stroke-width:1.0;"/><ellipse cx="453.76" cy="641.353" fill="none" rx="3" ry="3" style="stroke:#038048;stroke-width:1.0;"/><text fill="#000000" font-family="sans-serif" font-size="13" lengthAdjust="spacing" textLength="49" x="460.76" y="645.897">«friend»</text><!--MD5=[2b2a71df85c817f5c3bd05307cbd5dc3]
reverse link C_0011386574597552260978 to C_0001531427901889754508--><path codeLine="103" d="M539.65,667.77 C531.58,655.12 523.22,642.67 514.76,631 C502.63,614.28 489.06,597.26 475.26,580.88 " fill="none" id="C_0011386574597552260978-backto-C_0001531427901889754508" style="stroke:#A80036;stroke-width:1.0;"/><polygon fill="#FFFFFA" points="546.47,678.64,546.6677,671.4316,540.0899,668.4766,539.8922,675.685,546.47,678.64" style="stroke:#A80036;stroke-width:1.0;"/><rect fill="none" height="6" style="stroke:#C82930;stroke-width:1.0;" width="6" x="529.7" y="638.353"/><text fill="#000000" font-family="sans-serif" font-size="13" lengthAdjust="spacing" textLength="53" x="539.7" y="645.897">pChunks</text><text fill="#000000" font-family="sans-serif" font-size="13" lengthAdjust="spacing" textLength="14" x="485.4756" y="603.7435">27</text><!--MD5=[d1ea562af2c929099c51d005f9bc353a]
link C_0011386574597552260978 to C_0016291758929191873705--><path codeLine="102" d="M647.11,679.53 C669.23,583.78 685.02,447.42 634.76,341 C616.66,302.68 588.03,268.88 556.23,240.08 " fill="none" id="C_0011386574597552260978-to-C_0016291758929191873705" style="stroke:#A80036;stroke-width:1.0;stroke-dasharray:7.0,7.0;"/><polygon fill="#A80036" points="552.64,236.87,556.6709,245.8562,556.3628,240.2077,562.0113,239.8996,552.64,236.87" style="stroke:#A80036;stroke-width:1.0;"/><!--MD5=[862c52320d9e2e26734bbcaa98d71721]
reverse link C_0011386574597552260978 to C_0009617396256429424282--><path codeLine="104" d="M512.43,927.28 C494.68,950.23 476.66,973.53 460.36,994.6 " fill="none" id="C_0011386574597552260978-backto-C_0009617396256429424282" style="stroke:#A80036;stroke-width:1.0;"/><polygon fill="#FFFFFA" points="520.19,917.26,513.3549,919.5581,512.8474,926.7514,519.6825,924.4532,520.19,917.26" style="stroke:#A80036;stroke-width:1.0;"/><rect fill="none" height="6" style="stroke:#C82930;stroke-width:1.0;" width="6" x="495.51" y="953.143"/><text fill="#000000" font-family="sans-serif" font-size="13" lengthAdjust="spacing" textLength="81" x="505.51" y="960.687">pFrameAlarm</text><!--MD5=[b68371b921fa353c9d8682129de1b03a]
reverse link C_0012287643417462611281 to C_0011386574597552260978--><path codeLine="105" d="M884.69,597.63 C847.68,624.65 808.72,653.1 772.18,679.77 " fill="none" id="C_0012287643417462611281-backto-C_0011386574597552260978" style="stroke:#A80036;stroke-width:1.0;"/><polygon fill="#FFFFFA" points="894.88,590.19,887.6753,590.4934,885.1843,597.2606,892.389,596.9572,894.88,590.19" style="stroke:#A80036;stroke-width:1.0;"/><rect fill="none" height="6" style="stroke:#C82930;stroke-width:1.0;" width="6" x="837.26" y="638.353"/><text fill="#000000" font-family="sans-serif" font-size="13" lengthAdjust="spacing" textLength="44" x="847.26" y="645.897">pWorld</text><!--MD5=[aa0fb3794e9d2079b62637e22d1eec32]
@startuml MyCraft
skinparam BackgroundColor #FFFFFA
class "::MyCraft::BlockCatogary" as C_0009617396256429424282
class C_0009617396256429424282 {
+BlockCatogary() : void
+~BlockCatogary() : void
..
+getBlock(const int & index) const : GLuint
+getTexCoord() const : GLuint
__
{static} +Default : BlockCatogary *
-__blockTexture : GLuint
-__ptr : vector<GLuint>
}
enum "::MyCraft::BlockCatogary::Catogary" as C_0017142404441902118391
enum C_0017142404441902118391 {
Air
Dirt
}
class "::MyCraft::Block" as C_0016291758929191873705
class C_0016291758929191873705 {
+Block() : void
+~Block() : void
..
+getHoverPlane() const : char
+getType() const : BlockCatogary::Catogary
#glDraw() const : void
+setHoverPlane(const char & index) : void
+setPosition(const float & x, const float & y, const float & z) : void
+setPosition(const glm::vec3 & position) : void
+setType(const BlockCatogary::Catogary & type) : void
__
-__hoverPlane : char
-__position : glm::vec3
-__type : BlockCatogary::Catogary
}
class "::MyCraft::Chunk" as C_0001531427901889754508
class C_0001531427901889754508 {
+Chunk() : void
+~Chunk() : void
..
+at(const int & x, const int & y, const int & z) : Block &
+contains(const glm::vec3 & point) const : bool
+getBlocks(const int & x, const int & y, const int & z) : BlockCatogary::Catogary &
#glDraw() const : void
+setHover(const MyBase3D::Ray3f & ray) : bool
+setPosition(const int & x, const int & y, const int & z) : void
+setPosition(const glm::vec3 & position) : void
__
-__blocks : Block[16][16][16]
-__position : glm::vec3
}
class "::MyCraft::World" as C_0011386574597552260978
class C_0011386574597552260978 {
+World(const int & x, const int & y, const int & z) : void
+~World() : void
..
+at(const int & x, const int & y, const int & z) : MyCraft::Block &
#glDraw() const : void
#handle(sf::RenderWindow & window, const sf::RenderStates & state = sf::RenderStates::Default) : bool
+setHover(const MyBase3D::Ray3f & hover) : bool
__
-hX : float
-hY : float
-hZ : float
-pChunks : MyCraft::Chunk[3][3][3]
-pFrameAlarm : MyBase::Alarm
-pPosition : glm::vec3
}
class "::MyCraft::Coordinate" as C_0002492648447122705079
class C_0002492648447122705079 {
+Coordinate() : void
+~Coordinate() : void
..
#draw(sf::RenderTarget & target, sf::RenderStates state = = sf::RenderStates::Default) const : void
#glDraw() const : void
__
}
class "::MyCraft::GameForm" as C_0012287643417462611281
class C_0012287643417462611281 {
+GameForm(sf::RenderWindow & window, const int & index) : void
+~GameForm() : void
..
-AfterCatch(sf::RenderWindow & window, sf::Event & event, const sf::RenderStates & state = sf::RenderStates::Default) : bool
-CatchEvent(sf::RenderWindow & window, sf::Event & event, const sf::RenderStates & state = sf::RenderStates::Default) : bool
#draw(sf::RenderTarget & target, sf::RenderStates state = = sf::RenderStates::Default) const : void
-handle(sf::RenderWindow & window, const sf::RenderStates & state = sf::RenderStates::Default) : bool
+move(const float & x, const float & y, const float & z) : bool
__
-pFrameAlarm : MyBase::Alarm
-pSpeed : float
-pWindowCenter : sf::Vector2i
-pWorld : World
-pZVelocity : float
}
C_0009617396256429424282 - -> C_0009617396256429424282 : +Default
C_0017142404441902118391 - -+ C_0009617396256429424282
C_0016291758929191873705 o- - C_0017142404441902118391 : -__type
C_0016291758929191873705 <.. C_0001531427901889754508 : +<<friend>>
C_0001531427901889754508 ..> C_0017142404441902118391
C_0001531427901889754508 o- - "4096" C_0016291758929191873705 : -__blocks
C_0001531427901889754508 <.. C_0011386574597552260978 : +<<friend>>
C_0011386574597552260978 ..> C_0016291758929191873705
C_0011386574597552260978 o- - "27" C_0001531427901889754508 : -pChunks
C_0011386574597552260978 o- - C_0009617396256429424282 : -pFrameAlarm
C_0012287643417462611281 o- - C_0011386574597552260978 : -pWorld

'Generated with clang-uml, version 0.6.1
'LLVM version clang version 19.1.7
@enduml

@startuml MyCraft
skinparam BackgroundColor #FFFFFA
class "::MyCraft::BlockCatogary" as C_0009617396256429424282
class C_0009617396256429424282 {
+BlockCatogary() : void
+~BlockCatogary() : void
..
+getBlock(const int & index) const : GLuint
+getTexCoord() const : GLuint
__
{static} +Default : BlockCatogary *
-__blockTexture : GLuint
-__ptr : vector<GLuint>
}
enum "::MyCraft::BlockCatogary::Catogary" as C_0017142404441902118391
enum C_0017142404441902118391 {
Air
Dirt
}
class "::MyCraft::Block" as C_0016291758929191873705
class C_0016291758929191873705 {
+Block() : void
+~Block() : void
..
+getHoverPlane() const : char
+getType() const : BlockCatogary::Catogary
#glDraw() const : void
+setHoverPlane(const char & index) : void
+setPosition(const float & x, const float & y, const float & z) : void
+setPosition(const glm::vec3 & position) : void
+setType(const BlockCatogary::Catogary & type) : void
__
-__hoverPlane : char
-__position : glm::vec3
-__type : BlockCatogary::Catogary
}
class "::MyCraft::Chunk" as C_0001531427901889754508
class C_0001531427901889754508 {
+Chunk() : void
+~Chunk() : void
..
+at(const int & x, const int & y, const int & z) : Block &
+contains(const glm::vec3 & point) const : bool
+getBlocks(const int & x, const int & y, const int & z) : BlockCatogary::Catogary &
#glDraw() const : void
+setHover(const MyBase3D::Ray3f & ray) : bool
+setPosition(const int & x, const int & y, const int & z) : void
+setPosition(const glm::vec3 & position) : void
__
-__blocks : Block[16][16][16]
-__position : glm::vec3
}
class "::MyCraft::World" as C_0011386574597552260978
class C_0011386574597552260978 {
+World(const int & x, const int & y, const int & z) : void
+~World() : void
..
+at(const int & x, const int & y, const int & z) : MyCraft::Block &
#glDraw() const : void
#handle(sf::RenderWindow & window, const sf::RenderStates & state = sf::RenderStates::Default) : bool
+setHover(const MyBase3D::Ray3f & hover) : bool
__
-hX : float
-hY : float
-hZ : float
-pChunks : MyCraft::Chunk[3][3][3]
-pFrameAlarm : MyBase::Alarm
-pPosition : glm::vec3
}
class "::MyCraft::Coordinate" as C_0002492648447122705079
class C_0002492648447122705079 {
+Coordinate() : void
+~Coordinate() : void
..
#draw(sf::RenderTarget & target, sf::RenderStates state = = sf::RenderStates::Default) const : void
#glDraw() const : void
__
}
class "::MyCraft::GameForm" as C_0012287643417462611281
class C_0012287643417462611281 {
+GameForm(sf::RenderWindow & window, const int & index) : void
+~GameForm() : void
..
-AfterCatch(sf::RenderWindow & window, sf::Event & event, const sf::RenderStates & state = sf::RenderStates::Default) : bool
-CatchEvent(sf::RenderWindow & window, sf::Event & event, const sf::RenderStates & state = sf::RenderStates::Default) : bool
#draw(sf::RenderTarget & target, sf::RenderStates state = = sf::RenderStates::Default) const : void
-handle(sf::RenderWindow & window, const sf::RenderStates & state = sf::RenderStates::Default) : bool
+move(const float & x, const float & y, const float & z) : bool
__
-pFrameAlarm : MyBase::Alarm
-pSpeed : float
-pWindowCenter : sf::Vector2i
-pWorld : World
-pZVelocity : float
}
C_0009617396256429424282 - -> C_0009617396256429424282 : +Default
C_0017142404441902118391 - -+ C_0009617396256429424282
C_0016291758929191873705 o- - C_0017142404441902118391 : -__type
C_0016291758929191873705 <.. C_0001531427901889754508 : +<<friend>>
C_0001531427901889754508 ..> C_0017142404441902118391
C_0001531427901889754508 o- - "4096" C_0016291758929191873705 : -__blocks
C_0001531427901889754508 <.. C_0011386574597552260978 : +<<friend>>
C_0011386574597552260978 ..> C_0016291758929191873705
C_0011386574597552260978 o- - "27" C_0001531427901889754508 : -pChunks
C_0011386574597552260978 o- - C_0009617396256429424282 : -pFrameAlarm
C_0012287643417462611281 o- - C_0011386574597552260978 : -pWorld

@enduml

PlantUML version 1.2021.00(Sun Jan 10 17:25:05 GMT+07:00 2021)
(MIT source distribution)
Java Runtime: OpenJDK Runtime Environment
JVM: OpenJDK 64-Bit Server VM
Default Encoding: UTF-8
Language: en
Country: null
--></g></svg>