{"asset":{"version":"2.0","generator":"Blockbench 4.12.6 glTF exporter"},"scenes":[{"nodes":[12],"name":"blockbench_export"}],"scene":0,"nodes":[
    {"name":"cube","mesh":0},
    {"translation":[-0.30000000000000004,1.1,0],"name":"left_hand","children":[0]},
    {"name":"cube","mesh":1},
    {"translation":[0,1.2000000000000002,0],"name":"head","children":[2]},
    {"name":"cube","mesh":2},
    {"translation":[0.30000000000000004,1.1,0],"name":"right_hand","children":[4]},{"name":"cube","mesh":3},{"translation":[-0.1,0.6000000000000001,0],"name":"left_leg","children":[6]},{"name":"cube","mesh":4},{"translation":[0.1,0.6000000000000001,0],"name":"right_leg","children":[8]},{"name":"cube","mesh":5},{"translation":[0,0.6000000000000001,0],"name":"body","children":[10]},{"children":[1,3,5,7,9,11]}],"bufferViews":[{"buffer":0,"byteOffset":0,"byteLength":288,"target":34962,"byteStride":12},{"buffer":0,"byteOffset":288,"byteLength":288,"target":34962,"byteStride":12},{"buffer":0,"byteOffset":576,"byteLength":192,"target":34962,"byteStride":8},{"buffer":0,"byteOffset":768,"byteLength":72,"target":34963},{"buffer":0,"byteOffset":840,"byteLength":288,"target":34962,"byteStride":12},{"buffer":0,"byteOffset":1128,"byteLength":288,"target":34962,"byteStride":12},{"buffer":0,"byteOffset":1416,"byteLength":192,"target":34962,"byteStride":8},{"buffer":0,"byteOffset":1608,"byteLength":72,"target":34963},{"buffer":0,"byteOffset":1680,"byteLength":288,"target":34962,"byteStride":12},{"buffer":0,"byteOffset":1968,"byteLength":288,"target":34962,"byteStride":12},{"buffer":0,"byteOffset":2256,"byteLength":192,"target":34962,"byteStride":8},{"buffer":0,"byteOffset":2448,"byteLength":72,"target":34963},{"buffer":0,"byteOffset":2520,"byteLength":288,"target":34962,"byteStride":12},{"buffer":0,"byteOffset":2808,"byteLength":288,"target":34962,"byteStride":12},{"buffer":0,"byteOffset":3096,"byteLength":192,"target":34962,"byteStride":8},{"buffer":0,"byteOffset":3288,"byteLength":72,"target":34963},{"buffer":0,"byteOffset":3360,"byteLength":288,"target":34962,"byteStride":12},{"buffer":0,"byteOffset":3648,"byteLength":288,"target":34962,"byteStride":12},{"buffer":0,"byteOffset":3936,"byteLength":192,"target":34962,"byteStride":8},{"buffer":0,"byteOffset":4128,"byteLength":72,"target":34963},{"buffer":0,"byteOffset":4200,"byteLength":288,"target":34962,"byteStride":12},{"buffer":0,"byteOffset":4488,"byteLength":288,"target":34962,"byteStride":12},{"buffer":0,"byteOffset":4776,"byteLength":192,"target":34962,"byteStride":8},{"buffer":0,"byteOffset":4968,"byteLength":72,"target":34963},{"buffer":0,"byteOffset":5040,"byteLength":20},{"buffer":0,"byteOffset":5060,"byteLength":80},{"buffer":0,"byteOffset":5140,"byteLength":20},{"buffer":0,"byteOffset":5160,"byteLength":80},{"buffer":0,"byteOffset":5240,"byteLength":20},{"buffer":0,"byteOffset":5260,"byteLength":80},{"buffer":0,"byteOffset":5340,"byteLength":20},{"buffer":0,"byteOffset":5360,"byteLength":80},{"buffer":0,"byteOffset":5440,"byteLength":12},{"buffer":0,"byteOffset":5452,"byteLength":48},{"buffer":0,"byteOffset":5500,"byteLength":12},{"buffer":0,"byteOffset":5512,"byteLength":48},{"buffer":0,"byteOffset":5560,"byteLength":8},{"buffer":0,"byteOffset":5568,"byteLength":32},{"buffer":0,"byteOffset":5600,"byteLength":8},{"buffer":0,"byteOffset":5608,"byteLength":24},{"buffer":0,"byteOffset":5632,"byteLength":8},{"buffer":0,"byteOffset":5640,"byteLength":24},{"buffer":0,"byteOffset":5664,"byteLength":8},{"buffer":0,"byteOffset":5672,"byteLength":32},{"buffer":0,"byteOffset":5704,"byteLength":8},{"buffer":0,"byteOffset":5712,"byteLength":24},{"buffer":0,"byteOffset":5736,"byteLength":8},{"buffer":0,"byteOffset":5744,"byteLength":32}],"buffers":[{"byteLength":5776,"uri":"data:application/octet-stream;base64,"}],"accessors":[{"bufferView":0,"componentType":5126,"count":24,"max":[0.10000000149011612,0.10000000149011612,0.10000000149011612],"min":[-0.10000000149011612,-0.5,-0.10000000149011612],"type":"VEC3"},{"bufferView":1,"componentType":5126,"count":24,"max":[1,1,1],"min":[-1,-1,-1],"type":"VEC3"},{"bufferView":2,"componentType":5126,"count":24,"max":[0.875,0.75],"min":[0.625,0.5],"type":"VEC2"},{"bufferView":3,"componentType":5123,"count":36,"max":[23],"min":[0],"type":"SCALAR"},{"bufferView":4,"componentType":5126,"count":24,"max":[0.20000000298023224,0.4000000059604645,0.20000000298023224],"min":[-0.20000000298023224,0,-0.20000000298023224],"type":"VEC3"},{"bufferView":5,"componentType":5126,"count":24,"max":[1,1,1],"min":[-1,-1,-1],"type":"VEC3"},{"bufferView":6,"componentType":5126,"count":24,"max":[0.5,1],"min":[0,0.75],"type":"VEC2"},{"bufferView":7,"componentType":5123,"count":36,"max":[23],"min":[0],"type":"SCALAR"},{"bufferView":8,"componentType":5126,"count":24,"max":[0.10000000149011612,0.10000000149011612,0.10000000149011612],"min":[-0.10000000149011612,-0.5,-0.10000000149011612],"type":"VEC3"},{"bufferView":9,"componentType":5126,"count":24,"max":[1,1,1],"min":[-1,-1,-1],"type":"VEC3"},{"bufferView":10,"componentType":5126,"count":24,"max":[0.75,0.25],"min":[0.5,0],"type":"VEC2"},{"bufferView":11,"componentType":5123,"count":36,"max":[23],"min":[0],"type":"SCALAR"},{"bufferView":12,"componentType":5126,"count":24,"max":[0.10000000149011612,0,0.10000000149011612],"min":[-0.10000000149011612,-0.6000000238418579,-0.10000000149011612],"type":"VEC3"},{"bufferView":13,"componentType":5126,"count":24,"max":[1,1,1],"min":[-1,-1,-1],"type":"VEC3"},{"bufferView":14,"componentType":5126,"count":24,"max":[0.5,0.25],"min":[0.25,0],"type":"VEC2"},{"bufferView":15,"componentType":5123,"count":36,"max":[23],"min":[0],"type":"SCALAR"},{"bufferView":16,"componentType":5126,"count":24,"max":[0.10000000149011612,0,0.10000000149011612],"min":[-0.10000000149011612,-0.6000000238418579,-0.10000000149011612],"type":"VEC3"},{"bufferView":17,"componentType":5126,"count":24,"max":[1,1,1],"min":[-1,-1,-1],"type":"VEC3"},{"bufferView":18,"componentType":5126,"count":24,"max":[0.25,0.75],"min":[0,0.5],"type":"VEC2"},{"bufferView":19,"componentType":5123,"count":36,"max":[23],"min":[0],"type":"SCALAR"},{"bufferView":20,"componentType":5126,"count":24,"max":[0.20000000298023224,0.6000000238418579,0.10000000149011612],"min":[-0.20000000298023224,0,-0.10000000149011612],"type":"VEC3"},{"bufferView":21,"componentType":5126,"count":24,"max":[1,1,1],"min":[-1,-1,-1],"type":"VEC3"},{"bufferView":22,"componentType":5126,"count":24,"max":[0.625,0.75],"min":[0.25,0.5],"type":"VEC2"},{"bufferView":23,"componentType":5123,"count":36,"max":[23],"min":[0],"type":"SCALAR"},{"bufferView":24,"componentType":5126,"count":5,"max":[2],"min":[0],"type":"SCALAR"},{"bufferView":25,"componentType":5126,"count":5,"max":[0.258819043636322,0,0,1],"min":[-0.258819043636322,0,0,0.9659258127212524],"type":"VEC4"},{"bufferView":26,"componentType":5126,"count":5,"max":[2],"min":[0],"type":"SCALAR"},{"bufferView":27,"componentType":5126,"count":5,"max":[0.258819043636322,0,0,1],"min":[-0.258819043636322,0,0,0.9659258127212524],"type":"VEC4"},{"bufferView":28,"componentType":5126,"count":5,"max":[2],"min":[0],"type":"SCALAR"},{"bufferView":29,"componentType":5126,"count":5,"max":[0.258819043636322,0,0,1],"min":[-0.258819043636322,0,0,0.9659258127212524],"type":"VEC4"},{"bufferView":30,"componentType":5126,"count":5,"max":[2],"min":[0],"type":"SCALAR"},{"bufferView":31,"componentType":5126,"count":5,"max":[0.258819043636322,0,0,1],"min":[-0.258819043636322,0,0,0.9659258127212524],"type":"VEC4"},{"bufferView":32,"componentType":5126,"count":3,"max":[0.5],"min":[0],"type":"SCALAR"},{"bufferView":33,"componentType":5126,"count":3,"max":[0.7071067690849304,0,0,1],"min":[0,0,0,0.7071067690849304],"type":"VEC4"},{"bufferView":34,"componentType":5126,"count":3,"max":[0.5],"min":[0],"type":"SCALAR"},{"bufferView":35,"componentType":5126,"count":3,"max":[0.7071067690849304,0,0,1],"min":[0,0,0,0.7071067690849304],"type":"VEC4"},{"bufferView":36,"componentType":5126,"count":2,"max":[0.25],"min":[0],"type":"SCALAR"},{"bufferView":37,"componentType":5126,"count":2,"max":[0,0,0,1],"min":[-0.2798290252685547,0,0,0.9600498676300049],"type":"VEC4"},{"bufferView":38,"componentType":5126,"count":2,"max":[0.25],"min":[0],"type":"SCALAR"},{"bufferView":39,"componentType":5126,"count":2,"max":[-0.30000001192092896,1.100000023841858,0],"min":[-0.30000001192092896,1,-0.20000000298023224],"type":"VEC3"},{"bufferView":40,"componentType":5126,"count":2,"max":[0.25],"min":[0],"type":"SCALAR"},{"bufferView":41,"componentType":5126,"count":2,"max":[0,1.2000000476837158,0],"min":[0,1.100000023841858,-0.30000001192092896],"type":"VEC3"},{"bufferView":42,"componentType":5126,"count":2,"max":[0.25],"min":[0],"type":"SCALAR"},{"bufferView":43,"componentType":5126,"count":2,"max":[0,0,0,1],"min":[-0.2798290252685547,0,0,0.9600498676300049],"type":"VEC4"},{"bufferView":44,"componentType":5126,"count":2,"max":[0.25],"min":[0],"type":"SCALAR"},{"bufferView":45,"componentType":5126,"count":2,"max":[0.30000001192092896,1.100000023841858,0],"min":[0.30000001192092896,1,-0.20000000298023224],"type":"VEC3"},{"bufferView":46,"componentType":5126,"count":2,"max":[0.25],"min":[0],"type":"SCALAR"},{"bufferView":47,"componentType":5126,"count":2,"max":[0,0,0,1],"min":[-0.237685889005661,0,0,0.9713420867919922],"type":"VEC4"}],"materials":[{"pbrMetallicRoughness":{"metallicFactor":0,"roughnessFactor":1,"baseColorTexture":{"index":0}},"alphaMode":"MASK","alphaCutoff":0.05,"doubleSided":true}],"textures":[{"sampler":0,"source":0,"name":"Steve.png"}],"samplers":[{"magFilter":9728,"minFilter":9728,"wrapS":33071,"wrapT":33071}],"images":[{"mimeType":"image/png","name":"Steve.png","uri":"Steve.png"}],"meshes":[{"primitives":[{"mode":4,"attributes":{"POSITION":0,"NORMAL":1,"TEXCOORD_0":2},"indices":3,"material":0}]},{"primitives":[{"mode":4,"attributes":{"POSITION":4,"NORMAL":5,"TEXCOORD_0":6},"indices":7,"material":0}]},{"primitives":[{"mode":4,"attributes":{"POSITION":8,"NORMAL":9,"TEXCOORD_0":10},"indices":11,"material":0}]},{"primitives":[{"mode":4,"attributes":{"POSITION":12,"NORMAL":13,"TEXCOORD_0":14},"indices":15,"material":0}]},{"primitives":[{"mode":4,"attributes":{"POSITION":16,"NORMAL":17,"TEXCOORD_0":18},"indices":19,"material":0}]},{"primitives":[{"mode":4,"attributes":{"POSITION":20,"NORMAL":21,"TEXCOORD_0":22},"indices":23,"material":0}]}],"animations":[{"name":"walk","samplers":[{"input":24,"output":25,"interpolation":"LINEAR"},{"input":26,"output":27,"interpolation":"LINEAR"},{"input":28,"output":29,"interpolation":"LINEAR"},{"input":30,"output":31,"interpolation":"LINEAR"}],"channels":[{"sampler":0,"target":{"node":7,"path":"rotation"}},{"sampler":1,"target":{"node":1,"path":"rotation"}},{"sampler":2,"target":{"node":5,"path":"rotation"}},{"sampler":3,"target":{"node":9,"path":"rotation"}}]},{"name":"left_attack","samplers":[{"input":32,"output":33,"interpolation":"LINEAR"}],"channels":[{"sampler":0,"target":{"node":1,"path":"rotation"}}]},{"name":"right_attack","samplers":[{"input":34,"output":35,"interpolation":"LINEAR"}],"channels":[{"sampler":0,"target":{"node":5,"path":"rotation"}}]},{"name":"crouch","samplers":[{"input":36,"output":37,"interpolation":"LINEAR"},{"input":38,"output":39,"interpolation":"LINEAR"},{"input":40,"output":41,"interpolation":"LINEAR"},{"input":42,"output":43,"interpolation":"LINEAR"},{"input":44,"output":45,"interpolation":"LINEAR"},{"input":46,"output":47,"interpolation":"LINEAR"}],"channels":[{"sampler":0,"target":{"node":1,"path":"rotation"}},{"sampler":1,"target":{"node":1,"path":"translation"}},{"sampler":2,"target":{"node":3,"path":"translation"}},{"sampler":3,"target":{"node":5,"path":"rotation"}},{"sampler":4,"target":{"node":5,"path":"translation"}},{"sampler":5,"target":{"node":11,"path":"rotation"}}]}]}