{"asset":{"version":"2.0","generator":"Blockbench 4.12.6 glTF exporter"},"scenes":[{"nodes":[13],"name":"blockbench_export"}],"scene":0,"nodes":[{"name":"cube","mesh":0},{"translation":[0,0,0.23750000000000002],"name":"Body","children":[0]},{"name":"cube","mesh":1},{"name":"cube","mesh":2},{"translation":[0,0.65,-0.1125],"name":"head","children":[2,3]},{"name":"cube","mesh":3},{"translation":[0.15000000000000002,0.35000000000000003,-0.0125],"name":"FrontRightLeg","children":[5]},{"name":"cube","mesh":4},{"translation":[-0.15000000000000002,0.35000000000000003,-0.0125],"name":"FrontLeftLeg","children":[7]},{"name":"cube","mesh":5},{"translation":[0.15000000000000002,0.35000000000000003,0.5875],"name":"BehindRightLeg","children":[9]},{"name":"cube","mesh":6},{"translation":[-0.15000000000000002,0.35000000000000003,0.5875],"name":"BehindLeftLeg","children":[11]},{"children":[1,4,6,8,10,12]}],"bufferViews":[{"buffer":0,"byteOffset":0,"byteLength":288,"target":34962,"byteStride":12},{"buffer":0,"byteOffset":288,"byteLength":288,"target":34962,"byteStride":12},{"buffer":0,"byteOffset":576,"byteLength":192,"target":34962,"byteStride":8},{"buffer":0,"byteOffset":768,"byteLength":72,"target":34963},{"buffer":0,"byteOffset":840,"byteLength":288,"target":34962,"byteStride":12},{"buffer":0,"byteOffset":1128,"byteLength":288,"target":34962,"byteStride":12},{"buffer":0,"byteOffset":1416,"byteLength":192,"target":34962,"byteStride":8},{"buffer":0,"byteOffset":1608,"byteLength":72,"target":34963},{"buffer":0,"byteOffset":1680,"byteLength":288,"target":34962,"byteStride":12},{"buffer":0,"byteOffset":1968,"byteLength":288,"target":34962,"byteStride":12},{"buffer":0,"byteOffset":2256,"byteLength":192,"target":34962,"byteStride":8},{"buffer":0,"byteOffset":2448,"byteLength":72,"target":34963},{"buffer":0,"byteOffset":2520,"byteLength":288,"target":34962,"byteStride":12},{"buffer":0,"byteOffset":2808,"byteLength":288,"target":34962,"byteStride":12},{"buffer":0,"byteOffset":3096,"byteLength":192,"target":34962,"byteStride":8},{"buffer":0,"byteOffset":3288,"byteLength":72,"target":34963},{"buffer":0,"byteOffset":3360,"byteLength":288,"target":34962,"byteStride":12},{"buffer":0,"byteOffset":3648,"byteLength":288,"target":34962,"byteStride":12},{"buffer":0,"byteOffset":3936,"byteLength":192,"target":34962,"byteStride":8},{"buffer":0,"byteOffset":4128,"byteLength":72,"target":34963},{"buffer":0,"byteOffset":4200,"byteLength":288,"target":34962,"byteStride":12},{"buffer":0,"byteOffset":4488,"byteLength":288,"target":34962,"byteStride":12},{"buffer":0,"byteOffset":4776,"byteLength":192,"target":34962,"byteStride":8},{"buffer":0,"byteOffset":4968,"byteLength":72,"target":34963},{"buffer":0,"byteOffset":5040,"byteLength":288,"target":34962,"byteStride":12},{"buffer":0,"byteOffset":5328,"byteLength":288,"target":34962,"byteStride":12},{"buffer":0,"byteOffset":5616,"byteLength":192,"target":34962,"byteStride":8},{"buffer":0,"byteOffset":5808,"byteLength":72,"target":34963},{"buffer":0,"byteOffset":5880,"byteLength":20},{"buffer":0,"byteOffset":5900,"byteLength":80},{"buffer":0,"byteOffset":5980,"byteLength":20},{"buffer":0,"byteOffset":6000,"byteLength":80},{"buffer":0,"byteOffset":6080,"byteLength":20},{"buffer":0,"byteOffset":6100,"byteLength":80},{"buffer":0,"byteOffset":6180,"byteLength":20},{"buffer":0,"byteOffset":6200,"byteLength":80}],"buffers":[{"byteLength":6280,"uri":"data:application/octet-stream;base64,"}],"accessors":[{"bufferView":0,"componentType":5126,"count":24,"max":[0.25,0.699999988079071,0.4000000059604645],"min":[-0.25,0.30000001192092896,-0.4000000059604645],"type":"VEC3"},{"bufferView":1,"componentType":5126,"count":24,"max":[1,1,1],"min":[-1,-1,-1],"type":"VEC3"},{"bufferView":2,"componentType":5126,"count":24,"max":[1,0.75],"min":[0.4375,0],"type":"VEC2"},{"bufferView":3,"componentType":5123,"count":36,"max":[23],"min":[0],"type":"SCALAR"},{"bufferView":4,"componentType":5126,"count":24,"max":[0.10000000149011612,0,-0.44999998807907104],"min":[-0.10000000149011612,-0.15000000596046448,-0.5],"type":"VEC3"},{"bufferView":5,"componentType":5126,"count":24,"max":[1,1,1],"min":[-1,-1,-1],"type":"VEC3"},{"bufferView":6,"componentType":5126,"count":24,"max":[0.400390625,0.5],"min":[0.25,0.375],"type":"VEC2"},{"bufferView":7,"componentType":5123,"count":36,"max":[23],"min":[0],"type":"SCALAR"},{"bufferView":8,"componentType":5126,"count":24,"max":[0.20000000298023224,0.20000000298023224,-0.05000000074505806],"min":[-0.20000000298023224,-0.20000000298023224,-0.44999998807907104],"type":"VEC3"},{"bufferView":9,"componentType":5126,"count":24,"max":[1,1,1],"min":[-1,-1,-1],"type":"VEC3"},{"bufferView":10,"componentType":5126,"count":24,"max":[0.5,1],"min":[0,0.5],"type":"VEC2"},{"bufferView":11,"componentType":5123,"count":36,"max":[23],"min":[0],"type":"SCALAR"},{"bufferView":12,"componentType":5126,"count":24,"max":[0.10000000149011612,-0.05000000074505806,0.10000000149011612],"min":[-0.10000000149011612,-0.3499999940395355,-0.10000000149011612],"type":"VEC3"},{"bufferView":13,"componentType":5126,"count":24,"max":[1,1,1],"min":[-1,-1,-1],"type":"VEC3"},{"bufferView":14,"componentType":5126,"count":24,"max":[0.25,0.5],"min":[0,0.1875],"type":"VEC2"},{"bufferView":15,"componentType":5123,"count":36,"max":[23],"min":[0],"type":"SCALAR"},{"bufferView":16,"componentType":5126,"count":24,"max":[0.10000000149011612,-0.05000000074505806,0.10000000149011612],"min":[-0.10000000149011612,-0.3499999940395355,-0.10000000149011612],"type":"VEC3"},{"bufferView":17,"componentType":5126,"count":24,"max":[1,1,1],"min":[-1,-1,-1],"type":"VEC3"},{"bufferView":18,"componentType":5126,"count":24,"max":[0.25,0.5],"min":[0,0.1875],"type":"VEC2"},{"bufferView":19,"componentType":5123,"count":36,"max":[23],"min":[0],"type":"SCALAR"},{"bufferView":20,"componentType":5126,"count":24,"max":[0.10000000149011612,-0.05000000074505806,0.10000000149011612],"min":[-0.10000000149011612,-0.3499999940395355,-0.10000000149011612],"type":"VEC3"},{"bufferView":21,"componentType":5126,"count":24,"max":[1,1,1],"min":[-1,-1,-1],"type":"VEC3"},{"bufferView":22,"componentType":5126,"count":24,"max":[0.25,0.5],"min":[0,0.1875],"type":"VEC2"},{"bufferView":23,"componentType":5123,"count":36,"max":[23],"min":[0],"type":"SCALAR"},{"bufferView":24,"componentType":5126,"count":24,"max":[0.10000000149011612,-0.05000000074505806,0.10000000149011612],"min":[-0.10000000149011612,-0.3499999940395355,-0.10000000149011612],"type":"VEC3"},{"bufferView":25,"componentType":5126,"count":24,"max":[1,1,1],"min":[-1,-1,-1],"type":"VEC3"},{"bufferView":26,"componentType":5126,"count":24,"max":[0.25,0.5],"min":[0,0.1875],"type":"VEC2"},{"bufferView":27,"componentType":5123,"count":36,"max":[23],"min":[0],"type":"SCALAR"},{"bufferView":28,"componentType":5126,"count":5,"max":[2],"min":[0],"type":"SCALAR"},{"bufferView":29,"componentType":5126,"count":5,"max":[0.27563735842704773,0,0,1],"min":[-0.27563735842704773,0,0,0.9612616896629333],"type":"VEC4"},{"bufferView":30,"componentType":5126,"count":5,"max":[1.9583300352096558],"min":[0],"type":"SCALAR"},{"bufferView":31,"componentType":5126,"count":5,"max":[0.27563735842704773,0,0,1],"min":[-0.27563735842704773,0,0,0.9612616896629333],"type":"VEC4"},{"bufferView":32,"componentType":5126,"count":5,"max":[1.9166699647903442],"min":[0],"type":"SCALAR"},{"bufferView":33,"componentType":5126,"count":5,"max":[0.27563735842704773,0,0,1],"min":[-0.27563735842704773,0,0,0.9612616896629333],"type":"VEC4"},{"bufferView":34,"componentType":5126,"count":5,"max":[2],"min":[0],"type":"SCALAR"},{"bufferView":35,"componentType":5126,"count":5,"max":[0.27563735842704773,0,0,1],"min":[-0.27563735842704773,0,0,0.9612616896629333],"type":"VEC4"}],"materials":[{"pbrMetallicRoughness":{"metallicFactor":0,"roughnessFactor":1,"baseColorTexture":{"index":0}},"alphaMode":"MASK","alphaCutoff":0.05,"doubleSided":true}],"textures":[{"sampler":0,"source":0,"name":"image0.png"}],"samplers":[{"magFilter":9728,"minFilter":9728,"wrapS":33071,"wrapT":33071}],"images":[{"mimeType":"image/png","name":"image0.png","uri":"image0.png"}],"meshes":[{"primitives":[{"mode":4,"attributes":{"POSITION":0,"NORMAL":1,"TEXCOORD_0":2},"indices":3,"material":0}]},{"primitives":[{"mode":4,"attributes":{"POSITION":4,"NORMAL":5,"TEXCOORD_0":6},"indices":7,"material":0}]},{"primitives":[{"mode":4,"attributes":{"POSITION":8,"NORMAL":9,"TEXCOORD_0":10},"indices":11,"material":0}]},{"primitives":[{"mode":4,"attributes":{"POSITION":12,"NORMAL":13,"TEXCOORD_0":14},"indices":15,"material":0}]},{"primitives":[{"mode":4,"attributes":{"POSITION":16,"NORMAL":17,"TEXCOORD_0":18},"indices":19,"material":0}]},{"primitives":[{"mode":4,"attributes":{"POSITION":20,"NORMAL":21,"TEXCOORD_0":22},"indices":23,"material":0}]},{"primitives":[{"mode":4,"attributes":{"POSITION":24,"NORMAL":25,"TEXCOORD_0":26},"indices":27,"material":0}]}],"animations":[{"name":"Walk","samplers":[{"input":28,"output":29,"interpolation":"LINEAR"},{"input":30,"output":31,"interpolation":"LINEAR"},{"input":32,"output":33,"interpolation":"LINEAR"},{"input":34,"output":35,"interpolation":"LINEAR"}],"channels":[{"sampler":0,"target":{"node":6,"path":"rotation"}},{"sampler":1,"target":{"node":8,"path":"rotation"}},{"sampler":2,"target":{"node":10,"path":"rotation"}},{"sampler":3,"target":{"node":12,"path":"rotation"}}]}]}